<?xml version="1.0" standalone="no"?>
<!DOCTYPE svg PUBLIC "-//W3C//DTD SVG 20010904//EN"
 "http://www.w3.org/TR/2001/REC-SVG-20010904/DTD/svg10.dtd">
<svg version="1.0" xmlns="http://www.w3.org/2000/svg"
 width="1310.000000pt" height="1310.000000pt" viewBox="0 0 1310.000000 1310.000000"
 preserveAspectRatio="xMidYMid meet">
<metadata>
Created by potrace 1.14, written by Peter Selinger 2001-2017
</metadata>
<g transform="translate(0.000000,1310.000000) scale(0.100000,-0.100000)"
fill="#000000" stroke="none">
<path d="M6958 11535 c-2 -1 -30 -5 -63 -8 -85 -8 -241 -43 -348 -79 -51 -16
-93 -31 -94 -31 -1 -1 60 -2 135 -2 171 0 327 -19 464 -55 23 -7 51 -14 60
-15 81 -16 323 -96 456 -151 458 -190 862 -512 1114 -890 48 -72 152 -270 192
-364 60 -143 119 -390 134 -565 10 -108 8 -291 -3 -395 -44 -421 -183 -791
-465 -1235 -94 -148 -113 -179 -141 -232 -12 -24 -26 -43 -31 -43 -4 0 -8 -4
-8 -9 0 -5 -48 -86 -106 -181 -117 -190 -214 -371 -268 -498 -43 -100 -122
-332 -142 -417 -1 -5 -11 -44 -23 -85 -65 -241 -80 -460 -45 -665 7 -44 25
-108 28 -104 2 2 6 29 10 59 7 73 32 199 45 233 6 15 9 27 7 27 -3 0 9 39 25
88 138 409 329 710 820 1293 281 335 487 707 600 1084 34 116 74 290 84 374 4
30 9 63 11 75 25 129 25 579 0 712 -2 10 -7 39 -10 64 -101 659 -466 1239
-1004 1593 -268 177 -685 347 -962 392 -19 3 -46 7 -60 10 -64 12 -126 17
-262 20 -81 1 -148 1 -150 0z"/>
<path d="M6030 10977 c-3 -3 -41 -7 -85 -11 -44 -3 -93 -8 -110 -11 -192 -34
-224 -41 -366 -83 -169 -50 -387 -153 -549 -260 -47 -31 -92 -62 -100 -68
-295 -235 -471 -451 -622 -761 -97 -200 -181 -472 -203 -658 -3 -27 -8 -61
-10 -75 -16 -92 -22 -397 -11 -520 6 -67 16 -150 21 -185 2 -11 6 -42 10 -70
4 -27 17 -102 31 -165 130 -628 394 -1133 822 -1575 132 -136 173 -185 242
-287 152 -226 251 -515 294 -858 12 -99 15 -128 21 -214 4 -49 9 -103 11 -120
2 -17 6 -53 9 -81 3 -27 8 -68 11 -90 3 -22 7 -51 9 -65 2 -14 6 -43 9 -65 3
-22 8 -58 11 -80 30 -258 136 -457 365 -686 119 -118 157 -143 198 -128 25 10
25 10 -19 74 -77 115 -173 352 -195 485 -3 14 -9 50 -14 80 -25 140 -31 370
-15 620 15 236 10 647 -9 678 -2 4 -7 29 -11 57 -7 55 -46 209 -77 300 -48
146 -171 369 -286 520 -46 60 -182 226 -193 235 -21 17 -216 289 -269 373
-126 202 -237 437 -308 654 -30 91 -76 266 -87 333 -3 19 -10 60 -15 90 -33
189 -44 463 -27 685 49 636 400 1171 973 1483 210 113 498 212 749 257 84 15
146 25 184 30 23 3 55 7 70 9 14 3 55 8 91 11 36 4 72 9 80 10 9 2 65 6 125
10 61 4 125 8 143 10 35 3 57 15 28 15 -10 0 -57 9 -105 21 -47 12 -93 22
-101 24 -23 4 -210 34 -255 40 -52 7 -459 18 -465 12z"/>
<path d="M6267 10394 c-1 -1 -42 -5 -92 -8 -110 -9 -250 -38 -370 -78 -526
-176 -871 -604 -930 -1153 -7 -65 -8 -288 -1 -320 2 -11 7 -47 11 -80 3 -32 8
-62 10 -65 2 -3 6 -21 9 -40 5 -32 9 -50 20 -97 2 -10 9 -29 15 -43 8 -22 10
-22 11 -5 1 11 3 27 5 35 1 8 6 35 10 60 13 90 38 234 55 320 6 30 13 65 16
76 2 12 15 62 29 110 109 380 280 626 605 870 145 109 431 268 655 365 55 23
103 45 107 48 4 3 -31 6 -78 6 -47 1 -86 0 -87 -1z"/>
<path d="M7410 10045 c0 -3 36 -115 80 -248 99 -298 140 -433 156 -517 2 -14
7 -31 9 -39 11 -30 47 -223 60 -321 3 -25 8 -56 10 -70 2 -14 7 -54 10 -90 4
-36 9 -83 12 -105 8 -69 10 -476 2 -560 -10 -107 -19 -178 -24 -206 -36 -190
-59 -280 -98 -390 -99 -276 -233 -487 -437 -689 -151 -149 -294 -247 -433
-296 -70 -25 -99 -29 -217 -28 -99 0 -125 4 -188 26 -98 35 -171 80 -246 153
-150 145 -249 362 -272 600 -10 102 -4 330 11 405 14 73 16 118 6 124 -18 12
-49 -3 -57 -27 -4 -12 -17 -44 -30 -72 -44 -99 -84 -247 -98 -374 -7 -62 -9
-244 -2 -281 3 -14 7 -45 10 -70 8 -61 14 -93 32 -170 9 -36 17 -72 19 -81 8
-40 70 -231 98 -304 41 -108 93 -183 201 -290 239 -237 534 -281 881 -133 244
105 458 287 641 543 117 165 192 290 268 448 293 612 365 1248 215 1887 -11
47 -24 96 -29 110 -5 14 -19 59 -31 100 -30 103 -116 315 -174 430 -57 113
-182 324 -238 399 -54 73 -147 159 -147 136z"/>
<path d="M6585 8519 c-290 -40 -491 -333 -419 -611 20 -78 63 -155 120 -212
106 -109 200 -149 354 -150 119 -1 181 15 266 70 176 111 260 330 208 539 -59
234 -295 396 -529 364z"/>
<path d="M3478 8473 c-28 -32 -107 -298 -133 -448 -20 -114 -25 -355 -11 -465
43 -325 167 -618 394 -931 34 -46 65 -88 69 -94 5 -5 38 -48 74 -95 150 -193
319 -381 685 -765 89 -93 188 -201 221 -238 150 -176 261 -366 326 -562 l34
-100 16 55 c8 30 18 71 21 90 4 19 9 53 13 75 10 54 10 308 0 370 -47 290
-216 651 -417 889 -85 100 -127 146 -254 276 -163 166 -263 279 -357 400 -64
82 -219 306 -219 316 0 2 -11 21 -23 42 -177 282 -342 754 -383 1096 -4 28 -8
58 -10 66 -1 8 -3 21 -3 28 -1 18 -25 15 -43 -5z"/>
<path d="M9790 7263 c-14 -2 -78 -17 -142 -33 -493 -124 -982 -463 -1257 -872
-28 -42 -51 -79 -51 -81 0 -3 -15 -32 -34 -65 -69 -123 -147 -336 -210 -577
-20 -77 -41 -153 -46 -170 -5 -16 -12 -48 -16 -70 -3 -22 -11 -49 -17 -60 -6
-11 -9 -20 -7 -20 1 0 -6 -36 -16 -80 -10 -44 -19 -82 -19 -85 -1 -3 -4 -18
-8 -35 -4 -16 -9 -41 -11 -55 -2 -14 -16 -83 -31 -155 -15 -71 -28 -137 -30
-146 -28 -139 -108 -412 -127 -436 -6 -7 -8 -13 -5 -13 10 0 -79 -164 -119
-222 -35 -49 -112 -145 -141 -176 -18 -19 -16 -21 9 -17 53 11 161 52 255 97
166 80 321 201 433 338 25 30 48 57 51 60 15 13 111 163 147 230 67 124 152
356 176 480 2 14 14 75 26 135 64 338 126 526 266 810 224 454 505 810 944
1194 34 30 32 33 -20 24z"/>
<path d="M7360 4858 c-60 -18 -96 -20 -455 -23 -480 -4 -524 -7 -680 -47 -227
-57 -324 -182 -237 -306 5 -7 26 -19 47 -26 31 -11 48 -11 95 0 31 7 77 16
101 19 24 3 60 8 79 11 19 2 199 7 400 9 448 5 505 9 620 41 130 37 230 118
244 198 6 33 -21 103 -47 125 -27 22 -97 22 -167 -1z"/>
<path d="M7269 4365 c-3 -2 -21 -7 -40 -10 -19 -3 -50 -8 -69 -11 -19 -3 -172
-7 -340 -9 -168 -1 -330 -6 -360 -10 -109 -13 -208 -50 -276 -102 -70 -52 -80
-146 -23 -197 32 -29 50 -30 144 -12 64 12 202 19 445 21 277 3 303 5 418 31
59 13 137 48 173 76 35 28 69 91 69 128 0 53 -46 100 -98 100 -21 0 -41 -2
-43 -5z"/>
<path d="M7140 3844 c-45 -11 -140 -16 -305 -18 -307 -5 -351 -11 -444 -70
-74 -47 -99 -122 -60 -185 20 -33 20 -33 77 -27 31 4 127 9 212 12 435 12 476
17 580 69 67 34 101 75 107 129 5 40 2 48 -25 76 -34 34 -48 35 -142 14z"/>
<path d="M3660 2993 c-139 -29 -246 -100 -293 -196 -52 -107 -55 -230 -7 -335
46 -100 119 -167 310 -285 173 -106 217 -203 125 -273 -28 -21 -48 -27 -98
-29 -58 -3 -203 16 -237 31 -49 22 -98 20 -116 -3 -9 -13 -13 -53 -14 -139 0
-154 5 -159 180 -184 197 -28 395 -6 511 56 239 131 273 473 67 677 -74 73
-70 70 -221 171 -122 82 -161 121 -155 158 9 64 124 79 300 38 64 -14 124 -12
138 5 17 21 17 219 0 239 -16 20 -102 52 -181 67 -90 17 -232 18 -309 2z"/>
<path d="M7108 2982 c-14 -2 -32 -10 -39 -18 -18 -22 -19 -1358 -1 -1376 9 -9
54 -14 144 -16 145 -4 172 0 183 25 4 10 9 139 10 286 2 147 6 274 9 282 7 20
200 22 213 3 4 -7 8 -138 8 -291 0 -260 1 -280 19 -292 24 -18 299 -16 317 2
10 10 13 169 16 682 3 625 2 670 -14 690 -17 19 -29 21 -153 23 -135 2 -179
-7 -181 -35 0 -7 -1 -104 -2 -217 -1 -113 -6 -210 -10 -217 -8 -12 -200 -14
-212 -1 -4 3 -7 103 -7 221 1 266 11 249 -155 251 -65 0 -130 0 -145 -2z"/>
<path d="M4531 2939 c-74 -21 -142 -45 -150 -54 -11 -11 -15 -34 -13 -92 3
-82 -2 -93 -49 -93 -44 0 -53 -22 -54 -137 0 -58 4 -111 10 -119 5 -8 25 -16
44 -19 18 -2 36 -7 39 -10 4 -3 7 -146 7 -318 1 -172 5 -328 9 -347 28 -122
119 -179 295 -184 109 -4 155 7 170 41 6 13 11 69 11 124 0 102 -9 129 -40
123 -79 -16 -87 -16 -103 1 -15 15 -17 46 -17 286 1 173 5 271 11 275 6 3 36
7 68 8 32 2 63 6 69 10 17 10 17 242 0 253 -7 4 -42 10 -78 13 l-65 5 -1 123
c-1 91 -5 127 -15 137 -12 11 -36 7 -148 -26z"/>
<path d="M9055 2963 c-18 -18 -16 69 -18 -702 -2 -570 0 -657 13 -673 13 -16
32 -19 140 -19 111 -1 126 1 139 17 14 19 16 19 62 -4 34 -17 70 -25 123 -27
187 -9 288 74 313 260 12 86 8 595 -5 653 -27 123 -83 197 -171 227 -68 23
-170 19 -259 -10 -7 -3 -16 -5 -20 -5 -4 0 -7 61 -8 136 0 115 -3 138 -17 149
-26 19 -273 17 -292 -2z m409 -543 c16 -6 28 -21 33 -41 5 -18 8 -134 8 -258
-1 -236 -6 -264 -45 -276 -30 -9 -77 3 -86 23 -4 9 -9 125 -10 257 -1 184 2
246 12 267 19 37 43 45 88 28z"/>
<path d="M6660 2930 c-69 -22 -130 -46 -136 -55 -7 -9 -12 -50 -13 -91 -1 -42
-3 -79 -6 -84 -2 -4 -17 -6 -32 -5 -54 4 -63 -16 -63 -140 0 -124 3 -131 60
-137 l35 -3 5 -340 c6 -375 7 -380 71 -443 51 -50 135 -73 266 -72 87 0 129
12 138 41 11 33 8 230 -4 242 -7 7 -24 8 -53 1 -57 -13 -75 -8 -85 24 -11 33
-11 522 0 540 5 7 31 12 67 12 83 0 87 6 85 139 -1 66 -6 116 -13 123 -6 6
-38 12 -72 13 -33 1 -63 5 -66 8 -3 3 -6 54 -6 114 0 118 -8 153 -35 152 -10
0 -74 -18 -143 -39z"/>
<path d="M5140 2704 c-96 -14 -164 -39 -179 -67 -7 -14 -11 -61 -9 -126 4
-129 7 -133 105 -108 37 10 79 20 93 24 14 3 58 7 99 8 60 2 77 -1 92 -16 11
-11 19 -23 19 -27 0 -17 -36 -39 -110 -67 -253 -96 -360 -229 -347 -434 3 -54
13 -107 27 -143 59 -151 223 -223 374 -163 54 22 61 22 71 8 15 -21 236 -25
278 -6 l27 14 1 242 c2 531 1 616 -11 654 -32 99 -90 159 -187 190 -67 21
-249 30 -343 17z m215 -716 c0 -62 -4 -119 -8 -126 -11 -17 -72 -15 -87 3 -30
37 -21 155 15 190 25 25 68 54 74 51 4 -3 6 -55 6 -118z"/>
<path d="M6156 2689 c-26 -10 -54 -23 -62 -29 -11 -10 -14 -9 -14 3 0 27 -30
33 -150 31 -159 -2 -157 -2 -165 -21 -5 -10 -9 -253 -10 -541 l-3 -522 23 -18
c20 -16 42 -18 149 -17 87 0 130 5 138 13 14 14 16 54 18 430 1 155 5 254 13
270 30 73 99 109 188 98 75 -9 79 0 79 159 0 163 -2 167 -95 164 -35 -1 -84
-10 -109 -20z"/>
<path d="M8137 2672 c-14 -15 -15 -68 -14 -462 2 -442 2 -445 25 -496 47 -104
139 -159 264 -157 51 0 80 7 118 25 49 24 51 25 61 7 9 -17 23 -19 142 -19 96
0 138 4 151 13 18 13 19 43 20 542 2 497 1 530 -16 547 -15 15 -36 18 -146 18
-111 0 -131 -2 -145 -18 -14 -15 -16 -62 -18 -372 -1 -358 -6 -423 -35 -434
-34 -13 -64 -6 -81 21 -17 25 -18 57 -16 395 2 355 2 369 -17 388 -18 18 -34
20 -148 20 -110 0 -131 -3 -145 -18z"/>
</g>
</svg>
